PathFileType	4	(X/Y/Z)	/Users/itak/Documents/Research/Walk-IL/dataset/trc/00061_00006.trc
DataRate	CameraRate	NumFrames	NumMarkers	Units	OrigDataRate	OrigDataStartFrame	OrigNumFrames
100.000000	100.000000	4	53	mm	100.000000	396	793
Frame#	Time	RPSI			LPSI			L3			STRN			T10			C7			CLAV			RBAK			LBAK			LSHO			LUPA			LAEL			LAOL			LWTS			LWPS			LFRA			LIFD			LHPS			LHTS			RSHO			RUPA			RAEL			RAOL			RWTS			RWPS			RFRA			RIFD			RHTS			RHPS			RBHD			LFHD			RFHD			LBHD			LHIP			RHIP			RASI			LASI			LKNE			LTHI			LANK			LTIP			LTOE			LMT1			LMT5			LHEE			RKNE			RTHI			RANK			RTIP			RTOE			RMT1			RMT5			RHEE			
		X1	Y1	Z1	X2	Y2	Z2	X3	Y3	Z3	X4	Y4	Z4	X5	Y5	Z5	X6	Y6	Z6	X7	Y7	Z7	X8	Y8	Z8	X9	Y9	Z9	X10	Y10	Z10	X11	Y11	Z11	X12	Y12	Z12	X13	Y13	Z13	X14	Y14	Z14	X15	Y15	Z15	X16	Y16	Z16	X17	Y17	Z17	X18	Y18	Z18	X19	Y19	Z19	X20	Y20	Z20	X21	Y21	Z21	X22	Y22	Z22	X23	Y23	Z23	X24	Y24	Z24	X25	Y25	Z25	X26	Y26	Z26	X27	Y27	Z27	X28	Y28	Z28	X29	Y29	Z29	X30	Y30	Z30	X31	Y31	Z31	X32	Y32	Z32	X33	Y33	Z33	X34	Y34	Z34	X35	Y35	Z35	X36	Y36	Z36	X37	Y37	Z37	X38	Y38	Z38	X39	Y39	Z39	X40	Y40	Z40	X41	Y41	Z41	X42	Y42	Z42	X43	Y43	Z43	X44	Y44	Z44	X45	Y45	Z45	X46	Y46	Z46	X47	Y47	Z47	X48	Y48	Z48	X49	Y49	Z49	X50	Y50	Z50	X51	Y51	Z51	X52	Y52	Z52	X53	Y53	Z53	

397	3.96	370.4469299316406	1025.986450195312	-636.9246215820312	345.0839233398438	1006.596130371094	-465.7088317871094	356.9234924316406	1073.865844726562	-552.3385620117188	105.7478485107422	1267.558349609375	-615.49365234375	366.0546569824219	1208.785522460938	-555.75537109375	305.9563598632812	1473.524536132812	-580.662353515625	131.3989868164062	1382.520385742188	-611.6625366210938	382.6874084472656	1333.576293945312	-634.7843017578125	310.526611328125	1442.146606445312	-477.428466796875	196.8057556152344	1445.6455078125	-424.7212829589844	214.2928314208984	1333.422729492188	-332.5805053710938	216.7767944335938	1126.473999023438	-278.1635131835938	286.0395812988281	1106.392211914062	-355.6915283203125	150.1047973632812	872.9961547851562	-315.3798828125	204.8628692626953	875.4278564453125	-249.1408233642578	204.7864532470703	1017.581848144531	-255.9067993164062	163.0565948486328	685.3202514648438	-312.8256225585938	181.8433837890625	790.572998046875	-247.7017822265625	140.5711364746094	787.590576171875	-303.9454040527344	279.4144287109375	1432.15283203125	-760.9072875976562	306.0520935058594	1367.287475585938	-821.0293579101562	349.4892578125	1110.093505859375	-871.0438232421875	311.2752685546875	1077.62841796875	-784.3466796875	180.6229095458984	869.6041259765625	-888.725830078125	261.2939453125	852.5010986328125	-920.0231323242188	335.1481628417969	1029.876220703125	-890.4790649414062	172.6856079101562	676.86181640625	-881.196044921875	156.8195343017578	764.07763671875	-899.0437622070312	226.8318634033203	764.765625	-934.0941772460938	287.9944152832031	1646.380737304688	-566.8001708984375	90.05986022949219	1685.326416015625	-644.0916748046875	120.0190658569336	1684.410766601562	-521.2300415039062	246.5452728271484	1639.506225585938	-698.010498046875	221.6454467773438	948.07958984375	-399.2822570800781	327.9103698730469	955.2779541015625	-726.5218505859375	202.3277893066406	966.23046875	-739.9044189453125	131.6152496337891	958.409423828125	-484.0134887695312	-20.85258293151855	540.167236328125	-495.2837829589844	63.06222915649414	656.2495727539062	-435.3945922851562	30.76939582824707	65.93761444091797	-522.5980834960938	9.979909896850586	283.8258056640625	-497.9834289550781	-166.3989410400391	95.46435546875	-553.073974609375	-116.1425094604492	81.43927001953125	-599.1339721679688	-74.01697540283203	72.07178497314453	-497.0486145019531	88.16133117675781	60.53299713134766	-594.7683715820312	276.0972290039062	511.8497009277344	-735.7406005859375	256.8573913574219	782.5667114257812	-757.0806274414062	407.6886291503906	36.17086410522461	-706.4423828125	309.5957336425781	390.115234375	-735.3182373046875	192.1754150390625	38.31375503540039	-741.1109619140625	235.0986785888672	46.60966873168945	-683.853271484375	296.7869873046875	37.87987518310547	-762.6492919921875	433.51220703125	42.11397552490234	-637.6533813476562	
398	3.97	362.3403625488281	1024.632690429688	-639.3455200195312	338.6923522949219	1005.114196777344	-467.8189086914062	349.6838989257812	1072.493041992188	-554.45751953125	97.80813598632812	1266.155151367188	-614.4638671875	358.8232421875	1207.472900390625	-557.7438354492188	298.1876831054688	1472.217163085938	-581.55224609375	123.2977447509766	1381.11865234375	-610.7142333984375	374.4061279296875	1332.429077148438	-636.7880249023438	303.9682312011719	1440.649780273438	-478.4451293945312	190.8735046386719	1443.924926757812	-424.41015625	209.7377471923828	1331.621215820312	-332.6465148925781	213.3486328125	1124.605590820312	-278.644287109375	281.5287780761719	1104.749755859375	-357.2641296386719	147.0801849365234	870.8351440429688	-314.7166748046875	202.5701599121094	873.617431640625	-249.1980590820312	201.9978637695312	1015.746154785156	-256.1826477050781	161.4807891845703	683.1942138671875	-312.4648742675781	180.3169250488281	788.5847778320312	-247.4494018554688	138.2212982177734	785.2777099609375	-303.1809387207031	269.6559143066406	1431.12353515625	-761.5895385742188	295.6165771484375	1366.276123046875	-822.0344848632812	338.2790832519531	1108.857299804688	-872.66748046875	300.99755859375	1076.580322265625	-785.4894409179688	167.3080749511719	869.6862182617188	-888.3344116210938	247.5571594238281	851.8233032226562	-920.40869140625	323.2984008789062	1028.611450195312	-891.9220581054688	157.6864166259766	677.0607299804688	-880.2705078125	142.6866912841797	764.3184204101562	-898.1092529296875	212.1406707763672	764.3162231445312	-933.9256591796875	280.2982177734375	1645.107177734375	-567.37060546875	81.42951202392578	1683.8857421875	-642.4515380859375	112.8149642944336	1683.011108398438	-519.9332275390625	237.4131927490234	1638.20263671875	-698.12548828125	215.9527435302734	946.3941650390625	-400.3565063476562	318.6973571777344	954.0584106445312	-728.4837036132812	192.9712829589844	964.8992309570312	-740.497802734375	124.8348541259766	957.006591796875	-483.8823547363281	-24.03014755249023	537.6912231445312	-494.4447021484375	59.86437225341797	653.0725708007812	-434.4107055664062	3.722017288208008	63.59068298339844	-521.180419921875	-5.845881462097168	282.1036987304688	-496.8741149902344	-192.1649322509766	101.4552841186523	-550.4446411132812	-142.9055023193359	84.89987182617188	-596.6394653320312	-100.5812301635742	74.55180358886719	-494.7865295410156	60.50745391845703	55.14004516601562	-593.3309936523438	271.36767578125	510.7962646484375	-735.8441772460938	248.9593963623047	781.2127685546875	-757.8887329101562	407.4580078125	36.59440994262695	-706.1799926757812	306.1273498535156	389.4469299316406	-735.2894897460938	191.8615875244141	37.938720703125	-740.8441772460938	234.7687225341797	46.25909423828125	-683.6021728515625	296.5965881347656	38.01588821411133	-762.4761352539062	433.3278198242188	42.46735763549805	-637.4324951171875	
399	3.98	354.1099548339844	1023.141723632812	-641.6357421875	332.1315612792969	1003.459533691406	-469.8043823242188	342.3134155273438	1071.0185546875	-556.4337768554688	89.79665374755859	1264.677490234375	-613.2839965820312	351.4743957519531	1206.049560546875	-559.5748901367188	290.3298950195312	1470.802124023438	-582.2363891601562	115.1023178100586	1379.636840820312	-609.6018676757812	366.0448303222656	1331.193359375	-638.6083374023438	297.3309631347656	1439.038208007812	-479.2830200195312	184.8771820068359	1442.096435546875	-423.9355163574219	205.0740203857422	1329.682006835938	-332.5810241699219	209.6888580322266	1122.59521484375	-279.009765625	276.7884826660156	1102.943115234375	-358.6819152832031	143.7419128417969	868.5614624023438	-314.0268249511719	199.9205017089844	871.6590576171875	-249.2278442382812	198.90771484375	1013.765258789062	-256.395751953125	159.5846862792969	680.959716796875	-312.1474609375	178.4345397949219	786.4659423828125	-247.1965484619141	135.4095611572266	782.8638305664062	-302.4586181640625	259.8396606445312	1430.009033203125	-762.0657348632812	285.1472778320312	1365.195922851562	-822.8283081054688	327.0597534179688	1107.549072265625	-874.0716552734375	290.6349792480469	1075.459228515625	-786.452880859375	154.0570373535156	869.685302734375	-887.7186279296875	233.8879241943359	851.0472412109375	-920.4721069335938	311.46044921875	1027.280639648438	-893.1290893554688	142.8581848144531	677.18701171875	-878.97265625	128.6978759765625	764.4542236328125	-896.914306640625	197.56494140625	763.7769165039062	-933.3919677734375	272.5365600585938	1643.741943359375	-567.7666015625	72.75846862792969	1682.369384765625	-640.6180419921875	105.5808258056641	1681.526123046875	-518.45947265625	228.2372131347656	1636.819580078125	-698.0475463867188	210.0419158935547	944.5693969726562	-401.3363952636719	309.3304138183594	952.7736206054688	-730.3309326171875	183.441162109375	963.497802734375	-741.0014038085938	117.8872222900391	955.5364990234375	-483.6207885742188	-27.22977828979492	535.10546875	-493.7170715332031	56.76491546630859	649.6554565429688	-433.5404663085938	-22.09549331665039	62.23162078857422	-519.1070556640625	-21.04120063781738	280.8955688476562	-495.4526062011719	-216.4921264648438	107.8838882446289	-547.0340576171875	-168.3310699462891	88.88972473144531	-593.3792114257812	-125.6650772094727	77.78286743164062	-491.7955932617188	33.91739654541016	50.90555191040039	-591.2732543945312	266.5691223144531	509.7413330078125	-735.910400390625	240.8884429931641	779.8068237304688	-758.6118774414062	407.2170715332031	36.97611999511719	-705.92822265625	302.66552734375	388.8037414550781	-735.2654418945312	191.5723419189453	37.63915634155273	-740.6156616210938	234.4673767089844	45.94964218139648	-683.3856201171875	296.3966674804688	38.14476013183594	-762.3190307617188	433.1609497070312	42.87117767333984	-637.251220703125	
400	3.99	345.7498779296875	1021.513000488281	-643.7809448242188	325.4043579101562	1001.656982421875	-471.6596374511719	334.8202209472656	1069.459350585938	-558.2584228515625	81.72039031982422	1263.134887695312	-611.9522705078125	344.0046081542969	1204.531982421875	-561.2472534179688	282.3910217285156	1469.298217773438	-582.7167358398438	106.8102874755859	1378.085815429688	-608.3228759765625	357.6097412109375	1329.88427734375	-640.2463989257812	290.6152038574219	1437.327514648438	-479.9414367675781	178.8163757324219	1440.174438476562	-423.29638671875	200.2911224365234	1327.618408203125	-332.383544921875	205.7816925048828	1120.458374023438	-279.2576904296875	271.8172912597656	1100.9873046875	-359.9348754882812	140.0821075439453	866.1921997070312	-313.2976379394531	196.9215393066406	869.564453125	-249.2139892578125	195.5222930908203	1011.651550292969	-256.5305480957031	157.3176422119141	678.6318359375	-311.8346862792969	176.1817626953125	784.2269287109375	-246.9226379394531	132.2076110839844	780.3565673828125	-301.7334899902344	249.9598541259766	1428.818603515625	-762.3363037109375	274.6317749023438	1364.046142578125	-823.4122314453125	315.8176879882812	1106.185913085938	-875.264892578125	280.1792907714844	1074.268432617188	-787.2456665039062	140.8725280761719	869.604248046875	-886.8667602539062	220.2737884521484	850.181884765625	-920.2293701171875	299.6106567382812	1025.892456054688	-894.111083984375	128.2135467529297	677.2396240234375	-877.3262329101562	114.8180770874023	764.4912719726562	-895.4850463867188	183.0971832275391	763.1610107421875	-932.5193481445312	264.7064819335938	1642.2919921875	-567.9905395507812	64.05155944824219	1680.79736328125	-638.5848999023438	98.3123779296875	1679.96875	-516.8028564453125	219.0068817138672	1635.368408203125	-697.7728271484375	203.90869140625	942.6415405273438	-402.2070617675781	299.8294067382812	951.4400634765625	-732.0660400390625	173.7657318115234	962.0258178710938	-741.4293823242188	110.7893218994141	954.0120239257812	-483.2316284179688	-30.59315490722656	532.5220947265625	-493.0406494140625	53.64144134521484	646.1158447265625	-432.7925415039062	-46.3631591796875	61.74098587036133	-516.4883422851562	-35.48492050170898	280.141845703125	-493.7404479980469	-239.1997222900391	114.5017929077148	-542.7318725585938	-192.2718811035156	93.23137664794922	-589.316162109375	-148.9517669677734	81.55605316162109	-488.0934753417969	8.62912654876709	47.7664680480957	-588.804443359375	261.6949157714844	508.6919250488281	-735.9457397460938	232.6457214355469	778.354736328125	-759.24951171875	406.95751953125	37.31844329833984	-705.685546875	299.1940002441406	388.1900329589844	-735.2493896484375	191.298095703125	37.40153884887695	-740.4266967773438	234.1926422119141	45.67358016967773	-683.2069091796875	296.1848754882812	38.26292419433594	-762.1748657226562	433.0097045898438	43.33245468139648	-637.1034545898438	
